<svg width="145" height="42" viewBox="0 0 145 42" fill="none" xmlns="http://www.w3.org/2000/svg">
<path d="M130.625 31.3762C128.533 31.3762 126.666 30.9525 125.024 30.1051C123.409 29.2311 122.138 28.0262 121.211 26.4902C120.284 24.9541 119.82 23.2195 119.82 21.2863C119.82 19.353 120.271 17.6316 121.171 16.1221C122.098 14.5861 123.343 13.3811 124.905 12.5072C126.468 11.6333 128.229 11.1963 130.188 11.1963C132.095 11.1963 133.777 11.6068 135.233 12.4277C136.69 13.2487 137.829 14.3875 138.65 15.844C139.497 17.3006 139.921 18.969 139.921 20.8493C139.921 21.1936 139.894 21.5643 139.841 21.9616C139.815 22.3323 139.749 22.7693 139.643 23.2725L122.998 23.3122V19.1412L137.061 19.1014L134.439 20.8493C134.412 19.737 134.24 18.8234 133.922 18.1083C133.605 17.3668 133.128 16.8107 132.492 16.4399C131.883 16.0427 131.129 15.844 130.228 15.844C129.275 15.844 128.44 16.0691 127.725 16.5193C127.037 16.9431 126.494 17.5522 126.097 18.3467C125.726 19.1412 125.541 20.1078 125.541 21.2465C125.541 22.3853 125.739 23.3652 126.136 24.1861C126.56 24.9806 127.143 25.603 127.884 26.0532C128.652 26.4769 129.553 26.6888 130.586 26.6888C131.539 26.6888 132.4 26.5299 133.168 26.2121C133.936 25.8678 134.611 25.3646 135.194 24.7026L138.53 28.0394C137.577 29.1517 136.425 29.9859 135.074 30.542C133.724 31.0982 132.241 31.3762 130.625 31.3762Z" fill="#2A143C"/>
<path d="M111.531 30.9396V11.6336H117.609V30.9396H111.531ZM114.59 8.97202C113.637 8.97202 112.842 8.65423 112.207 8.01864C111.598 7.35657 111.293 6.56208 111.293 5.63518C111.293 4.6818 111.598 3.88731 112.207 3.25172C112.842 2.61613 113.637 2.29834 114.59 2.29834C115.543 2.29834 116.325 2.61613 116.934 3.25172C117.543 3.88731 117.847 4.6818 117.847 5.63518C117.847 6.56208 117.543 7.35657 116.934 8.01864C116.325 8.65423 115.543 8.97202 114.59 8.97202Z" fill="#2A143C"/>
<path d="M101.163 31.4165C100.024 31.4165 98.8983 31.2708 97.786 30.9795C96.7002 30.6882 95.6806 30.2777 94.7272 29.7481C93.8003 29.1919 93.0058 28.5563 92.3438 27.8413L94.7404 23.8159C95.376 24.5045 97.1901 25.577 98.064 25.9743C98.938 26.345 99.8914 26.5304 100.924 26.5304C101.639 26.5304 102.182 26.4245 102.553 26.2126C102.95 26.0007 103.149 25.7094 103.149 25.3387C103.149 24.862 102.91 24.5045 102.434 24.2661C101.984 24.0013 101.401 23.7762 100.686 23.5908C99.9708 23.3789 99.2161 23.1538 98.4216 22.9155C97.6271 22.6771 96.8723 22.3461 96.1573 21.9224C95.4422 21.4986 94.8596 20.916 94.4094 20.1745C93.9592 19.4065 93.7341 18.4399 93.7341 17.2746C93.7341 16.0299 94.0519 14.9574 94.6875 14.057C95.3231 13.1301 96.2235 12.4018 97.3887 11.8721C98.554 11.3425 99.9179 11.0776 101.48 11.0776C103.122 11.0776 104.632 11.3689 106.009 11.9516C107.413 12.5077 108.551 13.3419 109.425 14.4542L105.969 17.9499C105.36 17.2349 104.672 16.7317 103.904 16.4404C103.162 16.1491 102.434 16.0035 101.719 16.0035C101.03 16.0035 100.514 16.1094 100.169 16.3212C99.8252 16.5066 99.653 16.7847 99.653 17.1555C99.653 17.5527 99.8781 17.8705 100.328 18.1088C100.779 18.3472 101.361 18.559 102.076 18.7444C102.791 18.9298 103.546 19.1549 104.34 19.4197C105.135 19.6846 105.89 20.0421 106.605 20.4923C107.32 20.9425 107.902 21.5516 108.353 22.3196C108.803 23.0611 109.028 24.041 109.028 25.2592C109.028 27.1395 108.313 28.6358 106.883 29.7481C105.479 30.8603 103.572 31.4165 101.163 31.4165Z" fill="#2A143C"/>
<path d="M81.8616 31.376C79.8754 31.376 78.0745 30.939 76.4591 30.0651C74.8701 29.1647 73.6122 27.9465 72.6853 26.4105C71.7584 24.8745 71.2949 23.1531 71.2949 21.2463C71.2949 19.3395 71.7584 17.6314 72.6853 16.1219C73.6122 14.6123 74.8701 13.4206 76.4591 12.5467C78.0481 11.6463 79.8489 11.196 81.8616 11.196C83.8743 11.196 85.6751 11.633 87.2641 12.5069C88.8531 13.3809 90.111 14.5859 91.0379 16.1219C91.9648 17.6314 92.4283 19.3395 92.4283 21.2463C92.4283 23.1531 91.9648 24.8745 91.0379 26.4105C90.111 27.9465 88.8531 29.1647 87.2641 30.0651C85.6751 30.939 83.8743 31.376 81.8616 31.376ZM81.8616 25.8543C82.7355 25.8543 83.5035 25.6689 84.1656 25.2982C84.8277 24.9009 85.3309 24.358 85.6751 23.6695C86.0459 22.9544 86.2313 22.1467 86.2313 21.2463C86.2313 20.3459 86.0459 19.5646 85.6751 18.9026C85.3044 18.214 84.788 17.6844 84.1259 17.3136C83.4903 16.9163 82.7355 16.7177 81.8616 16.7177C81.0141 16.7177 80.2594 16.9163 79.5973 17.3136C78.9352 17.6844 78.4188 18.214 78.0481 18.9026C77.6773 19.5911 77.4919 20.3856 77.4919 21.286C77.4919 22.16 77.6773 22.9544 78.0481 23.6695C78.4188 24.358 78.9352 24.9009 79.5973 25.2982C80.2594 25.6689 81.0141 25.8543 81.8616 25.8543Z" fill="#2A143C"/>
<path d="M57.6133 30.9393V11.6333H63.6911V30.9393H57.6133ZM63.6911 20.333L61.1487 18.3467C61.6519 16.0957 62.4994 14.3478 63.6911 13.1031C64.8828 11.8584 66.538 11.2361 68.6566 11.2361C69.5835 11.2361 70.3913 11.3817 71.0798 11.6731C71.7949 11.9379 72.1524 12.0968 72.682 12.6794L69.332 17.5125C69.0671 17.2212 68.7361 16.9961 68.3388 16.8372C67.9416 16.6783 67.4914 16.5989 66.9882 16.5989C65.9819 16.5989 65.1741 16.9167 64.565 17.5523C63.9824 18.1614 63.6911 19.0883 63.6911 20.333Z" fill="#2A143C"/>
<ellipse cx="21.2899" cy="21" rx="21.2899" ry="21" fill="#D9D9D9"/>
<ellipse cx="21.2899" cy="21" rx="21.2899" ry="21" fill="#9332E0"/>
<ellipse cx="21.2899" cy="21" rx="21.2899" ry="21" fill="url(#paint0_linear_8146_6840)" fill-opacity="0.25"/>
<path d="M13.5703 24.7604C13.5703 22.8392 13.5703 20.9182 13.5703 20.9182C13.5703 15.6031 21.2086 15.6031 21.2086 20.9182C21.2086 26.2332 28.8724 26.3229 28.8724 20.9182V17.0888" stroke="white" stroke-width="5.69699" stroke-linecap="round"/>
<defs>
<linearGradient id="paint0_linear_8146_6840" x1="37.3731" y1="18.1525" x2="5.43819" y2="18.1525" gradientUnits="userSpaceOnUse">
<stop stop-color="#E66464"/>
<stop offset="1" stop-color="#2C1241" stop-opacity="0"/>
</linearGradient>
</defs>
</svg>
